<svg width="24" height="24" viewBox="0 0 24 24" fill="none" xmlns="http://www.w3.org/2000/svg">
<path d="M22 6V5.5C22 5.225 21.775 5 21.5 5H2.5C2.225 5 2 5.225 2 5.5V6C2 6.275 2.225 6.5 2.5 6.5V17.5C2.225 17.5 2 17.725 2 18V18.5C2 18.775 2.225 19 2.5 19H21.5C21.775 19 22 18.775 22 18.5V18C22 17.725 21.775 17.5 21.5 17.5V6.5C21.775 6.5 22 6.275 22 6ZM20 17.5H4V6.5H20V17.5Z" fill="#001D6D"/>
<rect x="7" y="8" width="1" height="8" rx="0.2" fill="#EF0AA1"/>
<rect x="10" y="8" width="1" height="8" rx="0.2" fill="#EF0AA1"/>
<rect x="13" y="8" width="1" height="8" rx="0.2" fill="#EF0AA1"/>
<rect x="16" y="8" width="1" height="8" rx="0.2" fill="#EF0AA1"/>
</svg>
