<svg width="11" height="22" viewBox="0 0 11 22" fill="none" xmlns="http://www.w3.org/2000/svg">
<path d="M6.97058 21.9514C6.94397 21.9372 6.64574 21.6511 6.30785 21.3155L5.6935 20.7054V16.7376C5.6935 14.5553 5.68791 12.7642 5.6811 12.7575C5.66854 12.7451 4.66153 13.2463 1.69946 14.7393C0.806437 15.1894 0.0634876 15.553 0.0484723 15.5473C0.0309415 15.5407 0.0251366 15.5213 0.0322766 15.4931C0.0383718 15.469 0.0519746 15.3689 0.0625008 15.2706C0.11579 14.7726 0.512496 13.6028 0.933351 12.7026C2.08024 10.2496 3.93591 8.21659 6.29688 6.82663C6.68219 6.59979 7.00585 6.43388 7.03869 6.44636C7.06373 6.45588 7.06733 6.71408 7.06733 8.49881C7.06733 9.96077 7.07332 10.5404 7.08844 10.5404C7.10005 10.5404 7.18855 10.4999 7.28513 10.4506C7.96242 10.1041 8.45402 9.45695 8.61832 8.69553C8.67387 8.43804 8.67888 7.96878 8.62871 7.71978C8.53654 7.26226 8.32383 6.83184 8.02399 6.49613C7.87593 6.33036 7.38435 5.8184 6.51576 4.92534C5.20241 3.57501 4.96193 3.31689 4.80806 3.09231C4.69517 2.9275 4.59773 2.72603 4.53867 2.53537C4.49133 2.38246 4.48643 2.33785 4.48539 2.05076C4.48413 1.70031 4.50423 1.59124 4.62054 1.31777C4.845 0.790059 5.42978 0.297815 5.91602 0.227292C6.2571 0.177849 6.68803 0.187373 6.96837 0.250614C7.19689 0.302165 7.56709 0.52322 7.82086 0.759645C8.11877 1.03722 8.26875 1.25877 9.38895 3.07602C10.7108 5.22043 10.8684 5.48477 10.891 5.59498C10.9134 5.70406 10.8972 5.75015 10.837 5.74881C10.7869 5.7477 10.8021 5.76309 8.42221 3.29641C8.21373 3.08034 7.85068 2.70089 7.61544 2.4532C7.0015 1.80678 6.74676 1.56323 6.63126 1.51229C6.48341 1.44705 6.27829 1.45004 6.13543 1.51953C5.85532 1.65577 5.72274 1.96998 5.82841 2.24719C5.8808 2.38461 5.80782 2.30585 7.52872 4.08213C8.29969 4.87791 8.99608 5.60662 9.07628 5.70148C10.3705 7.23237 10.2653 9.5071 8.83519 10.9139C8.50682 11.2369 8.17858 11.4582 7.57042 11.7666C7.36289 11.8718 7.16481 11.9751 7.13021 11.9962L7.06733 12.0346V16.9776C7.06733 19.6962 7.06204 21.9342 7.05558 21.9509C7.04198 21.986 7.03565 21.9861 6.97058 21.9514V21.9514ZM3.5335 12.362C5.22752 11.5009 5.57715 11.3187 5.6268 11.2714C5.65796 11.2417 5.67154 11.1989 5.68083 11.1017C5.69958 10.905 5.69596 8.83857 5.67684 8.82686C5.63474 8.80108 4.92317 9.42742 4.44545 9.91077C3.61957 10.7463 2.92911 11.6898 2.36149 12.7584C2.28727 12.8982 2.2327 13.0125 2.24023 13.0125C2.24775 13.0125 2.82975 12.7198 3.53352 12.362H3.5335Z" fill="#F8E6EA"/>
<path d="M6.34803 21.3344L5.69413 20.6875V12.7219L4.49929 13.3201C3.84213 13.6491 2.58001 14.2837 1.69461 14.7302C0.809211 15.1768 0.0703446 15.5421 0.0526397 15.5421C0.0274271 15.5421 0.0232863 15.531 0.0335029 15.4908C0.0406623 15.4625 0.0540909 15.3741 0.0633594 15.2943C0.10291 14.9535 0.377056 14.0591 0.646751 13.3911C1.81325 10.5018 3.90955 8.1462 6.66062 6.63346C6.83568 6.5372 6.99365 6.45844 7.01168 6.45844C7.02972 6.45844 7.04974 6.47208 7.05621 6.48875C7.06267 6.50543 7.06795 7.42874 7.06795 8.54057V10.5621L7.11149 10.5488C7.17439 10.5295 7.28529 10.4723 7.43258 10.3831C8.02756 10.0227 8.43642 9.46744 8.61105 8.78252C8.65954 8.59226 8.6637 8.54594 8.66399 8.19277C8.66432 7.7835 8.64814 7.67136 8.54375 7.35914C8.47692 7.15918 8.3059 6.83825 8.17158 6.66058C8.01595 6.45476 7.68695 6.10868 5.99397 4.36997C5.45228 3.81365 5.01397 3.3448 4.9106 3.21115C4.44205 2.60529 4.35219 1.91075 4.65929 1.2687C4.76927 1.03873 4.87775 0.889695 5.06803 0.707102C5.32672 0.458872 5.66613 0.272905 5.94341 0.227468C6.1693 0.190481 6.53816 0.185978 6.75188 0.217656C7.26385 0.293545 7.74031 0.610266 8.14459 1.14346C8.3541 1.41977 8.96163 2.38931 10.4322 4.79411C10.8776 5.52253 10.9475 5.66593 10.8865 5.7263C10.8334 5.77892 10.9241 5.86825 8.84713 3.7171C8.40492 3.25908 7.84664 2.6774 7.60651 2.42444C6.9505 1.73335 6.753 1.54842 6.61724 1.49811C6.30532 1.38255 5.99223 1.50587 5.83629 1.80575C5.76261 1.94743 5.76168 2.12977 5.83385 2.28477C5.89486 2.41585 5.80324 2.31775 7.53964 4.11086C8.30515 4.90137 8.98757 5.61283 9.05617 5.69188C9.52892 6.23682 9.8459 6.95672 9.94219 7.70409C9.98222 8.01481 9.97247 8.53038 9.92119 8.8156C9.77638 9.62103 9.4062 10.3312 8.83777 10.8942C8.48435 11.2443 8.19354 11.4388 7.48397 11.7999L7.07763 12.0066L7.06786 16.9891C7.0625 19.7295 7.05596 21.9738 7.05334 21.9764C7.02993 22.0001 6.91819 21.8983 6.34805 21.3344H6.34803ZM3.59953 12.3404C5.40709 11.4228 5.57991 11.332 5.64094 11.267L5.69415 11.2105V10.0035C5.69415 9.33959 5.68838 8.79643 5.68132 8.79643C5.67427 8.79643 5.60243 8.8499 5.52168 8.91525C4.54753 9.70363 3.72356 10.5966 3.04932 11.5948C2.66933 12.1574 2.16303 13.0536 2.24163 13.0246C2.26214 13.017 2.8732 12.7091 3.59953 12.3404V12.3404Z" fill="#F5DBE0"/>
<path d="M6.67543 21.6603C6.49474 21.4837 6.19981 21.1868 6.02005 21.0004L5.69316 20.6615V16.6933C5.69316 14.5108 5.68989 12.7251 5.6859 12.7251C5.67606 12.7251 3.32207 13.906 1.53625 14.8069C0.73456 15.2113 0.065333 15.5422 0.0490793 15.5422C0.0270787 15.5422 0.022667 15.5297 0.0318581 15.4934C0.0386692 15.4666 0.0521752 15.3825 0.0619081 15.3065C0.071641 15.2305 0.114152 15.0347 0.156412 14.8714C0.373631 14.0315 0.664244 13.2728 1.10698 12.3897C1.38732 11.8306 1.62838 11.4135 1.94875 10.9333C3.00422 9.35113 4.43592 7.98135 6.0995 6.96202C6.44915 6.74777 6.97631 6.45849 7.01706 6.45849C7.04473 6.45849 7.04764 6.65224 7.04764 8.50004C7.04764 10.2278 7.05178 10.5432 7.07461 10.5519C7.08943 10.5575 7.1618 10.5321 7.23541 10.4953C7.83911 10.1942 8.31297 9.66357 8.53522 9.03964C8.63882 8.74879 8.67821 8.51677 8.67904 8.19282C8.68038 7.66229 8.54155 7.19977 8.25051 6.76511C8.09718 6.5361 7.93329 6.35993 6.57446 4.96332C5.13343 3.4822 4.96325 3.29832 4.79009 3.0352C4.57984 2.71576 4.48777 2.41213 4.48866 2.04121C4.48899 1.90519 4.50163 1.75555 4.51957 1.67489C4.65099 1.08417 5.04251 0.603439 5.60237 0.345206C5.84908 0.231449 6.04908 0.191895 6.37767 0.191895C6.84458 0.191895 7.17275 0.293904 7.54657 0.555223C7.97834 0.857054 8.13809 1.07424 9.22453 2.83659C10.4714 4.85917 10.8654 5.51436 10.889 5.60462C10.903 5.6579 10.9129 5.70176 10.9111 5.70213C10.9094 5.70249 10.8931 5.71401 10.8749 5.72771C10.8463 5.74937 10.8289 5.74055 10.7416 5.66001C10.6035 5.53257 8.27228 3.12161 7.54707 2.35617C6.89588 1.66889 6.79797 1.57758 6.6309 1.50184C6.3352 1.36775 5.98275 1.49864 5.83453 1.79754C5.7895 1.88838 5.78031 1.93157 5.78064 2.05079C5.78099 2.17118 5.79032 2.21275 5.83803 2.30678C5.89581 2.42066 5.91663 2.4426 8.40813 5.01551C8.72537 5.34313 9.04324 5.68325 9.11447 5.77133C10.0514 6.92984 10.2326 8.51023 9.5818 9.8477C9.37254 10.2778 9.1277 10.6091 8.76416 10.9543C8.41757 11.2833 8.17344 11.4438 7.483 11.7964C7.25951 11.9105 7.07028 12.0131 7.06244 12.0243C7.05462 12.0356 7.0481 14.2805 7.04793 17.013C7.04771 20.6927 7.04197 21.9812 7.02577 21.9812C7.01375 21.9812 6.85607 21.8368 6.67543 21.6603ZM2.50447 12.8997C2.64594 12.8271 3.28413 12.5023 3.92267 12.178C5.44069 11.4069 5.61905 11.3129 5.65887 11.2628C5.68974 11.224 5.69235 11.1277 5.69273 10.0086C5.69297 9.33453 5.68569 8.79649 5.67635 8.79649C5.6671 8.79649 5.52561 8.90769 5.36191 9.04358C4.29782 9.9271 3.42221 10.9404 2.71875 12.1023C2.55378 12.3747 2.21022 12.9947 2.21022 13.0199C2.21022 13.0458 2.25759 13.0264 2.50447 12.8997Z" fill="#F3D5DA"/>
<path d="M6.36558 21.3444C6.01655 20.9937 5.72269 20.6868 5.71253 20.6624C5.701 20.6347 5.69405 19.134 5.69405 16.6715C5.69405 14.5009 5.68844 12.725 5.68163 12.725C5.66741 12.725 4.54842 13.2857 1.90938 14.6151C0.897352 15.125 0.0583321 15.5421 0.0448841 15.5421C0.0288239 15.5421 0.0243541 15.5265 0.0318618 15.4969C0.0381698 15.472 0.0524498 15.388 0.0635952 15.31C0.135847 14.8053 0.489481 13.733 0.846637 12.9358C1.90622 10.5707 3.56459 8.62621 5.74243 7.19536C6.28058 6.84178 6.98768 6.4426 7.02995 6.46847C7.04164 6.47562 7.04853 7.23673 7.04853 8.51966C7.04853 10.3665 7.05143 10.5595 7.07912 10.5595C7.12647 10.5595 7.36954 10.4335 7.55162 10.3146C7.75133 10.1842 8.08548 9.85726 8.2228 9.65796C8.42613 9.36283 8.57709 9.0042 8.64788 8.64827C8.69329 8.4198 8.69346 7.94731 8.64818 7.71974C8.58153 7.38456 8.44991 7.06365 8.26262 6.7796C8.09925 6.53181 8.01508 6.44107 6.49821 4.87739C5.06827 3.40334 5.0428 3.3763 4.88276 3.16253C4.45821 2.59543 4.37329 1.95294 4.63942 1.32145C4.87256 0.768266 5.42742 0.322284 6.00938 0.220332C6.21084 0.185032 6.54559 0.184649 6.76003 0.21947C7.06844 0.269564 7.37589 0.416532 7.67952 0.658994C8.04709 0.952527 8.18478 1.15036 9.42846 3.1718C10.726 5.28083 10.8766 5.53308 10.8897 5.62012C10.9039 5.71393 10.886 5.7408 10.8225 5.72085C10.8018 5.71435 10.4946 5.40982 10.1398 5.04408C8.87649 3.74201 8.1343 2.97118 7.59843 2.40471C6.75356 1.51158 6.67636 1.45044 6.39064 1.4482C6.26978 1.44724 6.22727 1.45592 6.13635 1.50014C6.01503 1.55916 5.89405 1.67794 5.82637 1.80446C5.79069 1.87119 5.78173 1.91841 5.78148 2.04113C5.78097 2.2629 5.83161 2.35383 6.12561 2.65924C6.25494 2.79358 6.94387 3.50581 7.65655 4.24199C8.3692 4.97813 9.00797 5.64648 9.07604 5.72719C9.72054 6.49156 10.0491 7.54495 9.95048 8.53087C9.84038 9.63172 9.29001 10.6043 8.41038 11.2526C8.17218 11.4281 8.011 11.5219 7.47927 11.7942L7.0582 12.0099L7.05333 16.9955C7.04946 20.9644 7.04354 21.9812 7.0243 21.9816C7.01103 21.9818 6.71459 21.6951 6.36558 21.3444ZM3.56559 12.3656C5.33719 11.4655 5.60431 11.3258 5.65052 11.2755L5.69405 11.2281V10.0122C5.69405 9.22867 5.68728 8.79641 5.67503 8.79641C5.64756 8.79641 5.19214 9.17658 4.86564 9.47209C4.05129 10.2091 3.24129 11.2105 2.65022 12.211C2.45705 12.538 2.21112 12.996 2.21112 13.0287C2.21112 13.0552 2.13407 13.093 3.56559 12.3656Z" fill="#F0CDD3"/>
<path d="M6.3632 21.3368L5.71514 20.6875L5.71432 16.7169C5.71378 14.0372 5.70711 12.7424 5.69378 12.7342C5.67365 12.7219 4.50186 13.3039 1.6561 14.7396C0.781421 15.1809 0.055944 15.542 0.0439473 15.542C0.0319505 15.542 0.0268809 15.5269 0.0326664 15.5085C0.0384713 15.49 0.0520741 15.4125 0.0628906 15.3363C0.127344 14.8819 0.415151 13.9583 0.7124 13.2519C1.31638 11.8166 2.12146 10.5443 3.13171 9.42871C3.40876 9.12278 4.07094 8.47772 4.35906 8.23311C4.89127 7.78123 5.46141 7.36483 6.02313 7.01776C6.41024 6.77857 6.95671 6.47421 7.00582 6.47044C7.03689 6.46804 7.0396 6.59732 7.04866 8.51842C7.05827 10.5556 7.05858 10.5689 7.09703 10.5627C7.14972 10.5541 7.39289 10.4238 7.55982 10.3145C7.74668 10.1923 8.12072 9.81917 8.24615 9.62993C8.43787 9.34069 8.57552 9.00967 8.64858 8.66215C8.6964 8.43479 8.69616 7.92936 8.64814 7.70396C8.55857 7.28358 8.353 6.8489 8.1043 6.55413C7.98466 6.41231 7.55782 5.96554 6.58461 4.96352C5.09198 3.42669 4.98711 3.3137 4.81224 3.05461C4.68783 2.87021 4.60754 2.70086 4.54785 2.49692C4.51006 2.36775 4.50433 2.30509 4.50538 2.03145C4.50646 1.74443 4.51138 1.6997 4.5587 1.54683C4.73763 0.96898 5.13171 0.542162 5.70227 0.308229C5.8824 0.23439 6.13195 0.192402 6.39077 0.192383C6.94591 0.192364 7.38824 0.379806 7.82609 0.800587C8.14799 1.10993 8.28853 1.32123 9.6852 3.59581C10.856 5.50243 10.8761 5.53629 10.8901 5.61851C10.9068 5.71588 10.8807 5.74727 10.8131 5.71141C10.7575 5.6819 8.84326 3.71143 7.66589 2.47168C6.73067 1.4869 6.68018 1.44664 6.38109 1.44733C6.18806 1.44777 6.0751 1.50022 5.93106 1.65631C5.80631 1.79151 5.7632 1.91115 5.77597 2.08671C5.78903 2.26595 5.85486 2.38094 6.07696 2.6123C6.18005 2.71972 6.87714 3.44055 7.62605 4.21416C8.37494 4.98778 9.04045 5.68631 9.10494 5.76643C9.28942 5.99561 9.44207 6.23625 9.57423 6.50622C10.3829 8.15809 9.8964 10.1484 8.41654 11.2427C8.16726 11.427 8.04037 11.5014 7.50575 11.7767L7.05833 12.0072L7.04866 16.9829C7.04334 19.7196 7.03275 21.9649 7.02513 21.9724C7.0175 21.98 6.71964 21.694 6.3632 21.3368V21.3368ZM3.65279 12.3226C5.50525 11.382 5.6174 11.3228 5.66421 11.2607C5.70302 11.2093 5.70397 11.1832 5.70964 10.009C5.71305 9.3061 5.70815 8.80247 5.69784 8.79226C5.6615 8.75627 5.03 9.29795 4.53285 9.79158C3.81115 10.5082 3.23488 11.2414 2.69406 12.1313C2.43651 12.555 2.17491 13.0611 2.22251 13.0436C2.24292 13.036 2.88655 12.7116 3.65279 12.3226V12.3226Z" fill="#EEC3CB"/>
<path d="M6.908 21.8817C6.84972 21.8257 6.55707 21.5333 6.25766 21.2318L5.71329 20.6837V16.7044C5.71329 13.1695 5.71002 12.725 5.6841 12.725C5.65679 12.725 4.04891 13.5271 1.74662 14.6892C0.399183 15.3693 0.0418914 15.5467 0.0352352 15.5391C0.0221354 15.5239 0.0736055 15.2596 0.154042 14.9289C0.468822 13.6345 1.14929 12.1358 1.98564 10.8949C3.05494 9.30824 4.5034 7.93673 6.18036 6.92302C6.50953 6.72404 6.96953 6.47759 7.01181 6.47759C7.04749 6.47759 7.04842 6.52893 7.04842 8.51742C7.04842 9.87761 7.05496 10.5612 7.06808 10.5693C7.07888 10.5759 7.17137 10.5377 7.27361 10.4844C8.15309 10.0258 8.69246 9.15372 8.69302 8.18935C8.69337 7.59096 8.49682 7.04136 8.11263 6.5665C7.97792 6.39998 7.82076 6.23471 6.63407 5.01156C5.11736 3.44824 5.07984 3.40857 4.91659 3.1962C4.76356 2.99709 4.62635 2.73707 4.5599 2.52025C4.51249 2.36554 4.50692 2.31719 4.50572 2.05073C4.5041 1.69319 4.53978 1.53352 4.68776 1.23627C4.86643 0.877233 5.15599 0.583946 5.51442 0.398999C5.80482 0.249137 6.04843 0.19178 6.39425 0.191895C7.08462 0.192125 7.67481 0.526573 8.16966 1.19794C8.37633 1.47835 9.14933 2.71773 10.6143 5.11749C10.885 5.56095 10.9426 5.69567 10.873 5.72213C10.8159 5.74383 10.9394 5.86669 9.01131 3.87C8.45733 3.29627 7.81618 2.62853 7.58655 2.3861C6.7591 1.51252 6.67729 1.44834 6.39053 1.44753C6.19603 1.447 6.09324 1.48764 5.95667 1.61909C5.83897 1.73238 5.78688 1.84131 5.77554 1.99779C5.76453 2.14958 5.79218 2.26296 5.86778 2.37606C5.89748 2.4205 6.36468 2.91449 6.90597 3.47381C7.44726 4.03312 8.13297 4.74159 8.42977 5.04818C8.7266 5.3548 9.0209 5.668 9.08379 5.74423C9.4779 6.22185 9.75075 6.79207 9.88403 7.41663C9.92643 7.61532 9.9369 7.72398 9.94541 8.05373C9.95199 8.30867 9.94735 8.51834 9.93249 8.63823C9.82635 9.49422 9.44131 10.2782 8.82869 10.8856C8.47617 11.2352 8.2046 11.4146 7.39671 11.8316L7.0581 12.0064L7.04842 16.9826C7.0431 19.7195 7.03315 21.9644 7.02634 21.9711C7.01951 21.9779 6.96626 21.9376 6.90798 21.8817H6.908ZM3.42553 12.4438C5.20186 11.5412 5.56126 11.3538 5.6359 11.2918L5.70362 11.2355L5.70888 10.0221C5.71184 9.33943 5.7067 8.80139 5.69708 8.79188C5.6774 8.77237 5.4871 8.91825 5.14561 9.2146C4.17434 10.0575 3.35459 11.0311 2.69007 12.1309C2.54237 12.3754 2.19166 13.0133 2.19166 13.0375C2.19166 13.0448 2.20052 13.0508 2.21134 13.0508C2.22215 13.0508 2.76855 12.7777 3.42553 12.4438Z" fill="#ECBBC4"/>
<path d="M6.36396 21.3281L5.71276 20.6727V16.7021C5.71276 14.5182 5.70696 12.7257 5.6999 12.7187C5.68658 12.7055 4.49223 13.2996 1.67194 14.7222C0.774461 15.1749 0.0370849 15.5423 0.0333117 15.5386C0.019496 15.5249 0.140741 14.9685 0.218352 14.6893C0.698765 12.9614 1.63953 11.1934 2.82881 9.78335C3.63567 8.82678 4.6577 7.91887 5.70309 7.23001C6.24229 6.87471 6.96608 6.46445 7.01855 6.48438C7.04452 6.49425 7.04789 6.73042 7.04789 8.5371C7.04789 10.1738 7.05277 10.5787 7.07244 10.5787C7.11199 10.5787 7.37542 10.442 7.52211 10.3453C8.13099 9.94417 8.53576 9.32932 8.66219 8.61349C8.70139 8.39146 8.70147 7.97591 8.66235 7.75198C8.62129 7.51691 8.51719 7.21604 8.40037 6.99483C8.20271 6.62048 8.12061 6.52922 6.32326 4.68575C5.04398 3.37366 4.83945 3.14066 4.67825 2.81177C4.54706 2.54405 4.50434 2.34776 4.50637 2.02197C4.50836 1.70174 4.54495 1.54117 4.67864 1.26607C4.79294 1.03087 4.89878 0.886203 5.0864 0.708745C5.44678 0.367858 5.88968 0.192048 6.38843 0.191895C6.91589 0.191703 7.39049 0.39164 7.81857 0.794388C8.10303 1.06199 8.31324 1.37778 9.5926 3.45926C10.9092 5.6014 10.9323 5.64136 10.8896 5.70977C10.8681 5.74425 10.843 5.73331 10.7498 5.64874C10.6274 5.53766 8.25852 3.08806 7.53413 2.32353C6.90933 1.6641 6.76879 1.53555 6.60695 1.47545C6.29271 1.35877 5.95968 1.50267 5.81313 1.81845C5.71058 2.03949 5.76003 2.27413 5.95525 2.4925C6.00657 2.54992 6.70786 3.27816 7.51365 4.11083C8.31945 4.94351 9.02211 5.67653 9.07513 5.73977C9.43312 6.16683 9.72071 6.74579 9.85442 7.3086C10.0317 8.0549 9.96483 8.89719 9.67108 9.61672C9.46706 10.1165 9.22263 10.4783 8.81979 10.8769C8.43013 11.2624 8.20343 11.4152 7.45901 11.7939L7.04789 12.0031L7.0476 16.9682C7.04744 19.699 7.04005 21.9445 7.03123 21.9583C7.01977 21.9762 6.82856 21.7956 6.36396 21.328V21.3281ZM4.39699 11.9539C5.55361 11.3638 5.64101 11.3158 5.68053 11.2496C5.70969 11.2007 5.71276 11.0804 5.71276 9.98639C5.71276 9.02586 5.70773 8.77722 5.68834 8.77722C5.67492 8.77722 5.52472 8.89263 5.35456 9.03368C4.26831 9.93419 3.3809 10.968 2.65736 12.1759C2.47837 12.4748 2.19113 13.0127 2.19113 13.0491C2.19113 13.0728 2.65925 12.8404 4.39699 11.9539V11.9539Z" fill="#E7A8B4"/>
<path d="M6.36646 21.3243L5.71341 20.6622V16.6841C5.71341 14.0008 5.707 12.7059 5.69373 12.7059C5.6738 12.7059 4.02889 13.5289 1.48601 14.8112C0.720037 15.1974 0.0809175 15.5165 0.0657473 15.5202C0.0291184 15.5292 0.0431082 15.4297 0.131594 15.0524C0.402702 13.8964 0.960243 12.5719 1.65993 11.4216C2.82843 9.50058 4.49494 7.8894 6.48457 6.75712C6.72905 6.61803 6.99745 6.47767 7.01905 6.47767C7.02464 6.47767 7.02921 7.38677 7.02921 8.49789C7.02921 9.60901 7.03449 10.5318 7.04095 10.5484C7.05815 10.5928 7.09196 10.5865 7.24737 10.5096C7.97357 10.1504 8.48465 9.48552 8.65723 8.67554C8.71578 8.40079 8.71578 7.96573 8.65723 7.69097C8.58217 7.33872 8.46837 7.06376 8.27799 6.77471C8.11215 6.5229 8.05112 6.45707 6.54548 4.90623C4.87031 3.18077 4.8551 3.16358 4.67843 2.7942C4.55382 2.5337 4.50793 2.32694 4.50913 2.03165C4.5111 1.53745 4.69552 1.10164 5.05175 0.749293C5.40892 0.396006 5.8177 0.217245 6.31325 0.197698C6.80941 0.178113 7.2461 0.332152 7.68278 0.68082C8.03539 0.962357 8.17267 1.16093 9.45134 3.23897C10.5747 5.06456 10.8678 5.55125 10.8856 5.62078C10.9422 5.84166 10.852 5.75975 9.51316 4.37451C7.87198 2.67647 7.97314 2.78166 7.49958 2.28078C6.92466 1.67271 6.80858 1.56489 6.64931 1.49094C6.39022 1.37062 6.13494 1.42049 5.93701 1.63007C5.80677 1.76797 5.7626 1.8746 5.76267 2.05081C5.76277 2.26048 5.81964 2.3637 6.08837 2.64211C6.20683 2.76486 6.89583 3.47683 7.61945 4.22428C8.34309 4.97173 8.99041 5.6487 9.05796 5.72865C9.65824 6.43917 9.98125 7.37866 9.94466 8.30782C9.90414 9.33681 9.48303 10.2659 8.74457 10.9556C8.42114 11.2576 8.12786 11.4471 7.44522 11.7947C7.24302 11.8977 7.06887 11.99 7.05823 12C7.04546 12.0118 7.03559 13.7166 7.02921 17.0022L7.01953 21.9864L6.36646 21.3243ZM3.44528 12.4437C5.33954 11.4812 5.58278 11.3543 5.65052 11.2928L5.71341 11.2357V10.0065C5.71341 8.94401 5.7096 8.77732 5.68527 8.77732C5.64681 8.77732 5.22673 9.12411 4.85498 9.46275C3.83386 10.393 2.89163 11.6359 2.24773 12.9019C2.16522 13.0642 2.16329 13.07 2.19239 13.07C2.20336 13.07 2.76717 12.7881 3.44528 12.4436V12.4437Z" fill="#E297A4"/>
<path d="M6.37636 21.3292L5.73298 20.6816V16.7027C5.73298 13.2172 5.72944 12.7224 5.7045 12.7129C5.67574 12.702 4.65954 13.2059 1.67261 14.7124C0.785642 15.1597 0.0552117 15.521 0.0494068 15.5153C0.0241168 15.4902 0.193504 14.7818 0.32481 14.3634C0.855959 12.6712 1.77996 11.0108 2.93775 9.66829C3.24732 9.30933 4.02907 8.53398 4.38816 8.22975C4.92606 7.77403 5.47286 7.37573 6.04256 7.02459C6.44153 6.77868 6.99084 6.47535 7.01284 6.48879C7.02194 6.49436 7.02939 7.41203 7.02939 8.52804C7.02939 9.89231 7.03589 10.5611 7.0492 10.5693C7.08573 10.5916 7.17852 10.558 7.35131 10.46C8.03706 10.0707 8.49362 9.4554 8.65687 8.70051C8.69203 8.53796 8.70039 8.43854 8.70039 8.18309C8.70039 7.71004 8.62736 7.4112 8.40966 6.99343C8.21864 6.62684 8.19093 6.59562 6.64271 5.00188C5.07178 3.38477 4.95805 3.26114 4.78282 2.98026C4.58106 2.65681 4.50331 2.35743 4.51943 1.96595C4.5315 1.6724 4.56467 1.53137 4.6781 1.29131C4.83899 0.950764 5.05449 0.700733 5.3534 0.507753C6.14 -5.22512e-05 7.0861 0.112689 7.80603 0.800021C8.00254 0.987636 8.18466 1.21971 8.40327 1.56106C8.85284 2.26301 10.8081 5.44725 10.8633 5.56721C10.949 5.75368 10.8723 5.76 10.6882 5.58159C10.5733 5.47021 9.73629 4.60568 8.35507 3.17173C8.15202 2.96092 7.80212 2.59441 7.57753 2.35726C6.76397 1.49824 6.67699 1.43019 6.39087 1.42862C6.21541 1.42766 6.07086 1.48601 5.94846 1.60726C5.70817 1.84524 5.69128 2.18339 5.90643 2.44833C5.94707 2.49836 6.33557 2.90583 6.76975 3.35378C7.20396 3.80174 7.8769 4.49595 8.26521 4.89648C8.65352 5.297 9.02337 5.68938 9.08711 5.76843C9.5216 6.30734 9.8001 6.93494 9.90645 7.6148C9.95682 7.93679 9.95134 8.48166 9.89445 8.80591C9.70018 9.9136 9.06629 10.8454 8.10624 11.4347C8.00885 11.4945 7.75067 11.6338 7.5325 11.7444C7.31433 11.855 7.1119 11.9619 7.08266 11.9819L7.02949 12.0184L7.02461 16.9977L7.01973 21.9769L6.37636 21.3292ZM3.59229 12.3734C5.32244 11.4948 5.59724 11.3512 5.6545 11.2961C5.68879 11.2631 5.7056 11.2202 5.71574 11.1397C5.73267 11.0055 5.73728 8.8621 5.72077 8.80112C5.71439 8.7774 5.70177 8.758 5.69277 8.758C5.68379 8.758 5.57377 8.84123 5.44833 8.94295C4.29217 9.88043 3.31389 11.0249 2.57105 12.3091C2.39807 12.6082 2.17264 13.0343 2.17264 13.0622C2.17264 13.091 2.32164 13.0187 3.59229 12.3734Z" fill="#E08E9D"/>
<path d="M6.38101 21.3337L5.74247 20.6959L5.73279 16.7059C5.72409 13.1172 5.7201 12.7153 5.69303 12.7101C5.66385 12.7046 4.50314 13.282 1.54359 14.7744C0.756063 15.1715 0.0964916 15.5021 0.0778579 15.509C0.0341277 15.5253 0.0345921 15.5072 0.0834693 15.2879C0.454112 13.6252 1.24149 11.919 2.31425 10.454C3.19447 9.25202 4.39883 8.10855 5.67567 7.26266C6.14542 6.95144 6.93224 6.49668 7.00093 6.49668C7.02558 6.49668 7.02922 6.75916 7.02922 8.53558C7.02922 10.2746 7.03324 10.576 7.05656 10.5849C7.09149 10.5982 7.31972 10.49 7.49953 10.375C8.28799 9.87085 8.74842 8.99417 8.70606 8.0777C8.68209 7.5592 8.52247 7.09867 8.22335 6.68494C8.08275 6.49053 7.8806 6.27284 6.97278 5.3383C6.60475 4.95944 6.17735 4.51935 6.02304 4.3603C5.06051 3.3683 4.84025 3.1139 4.70351 2.83637C4.5519 2.52862 4.50334 2.29308 4.5198 1.94525C4.54128 1.49145 4.70871 1.11176 5.0341 0.778995C5.21844 0.590479 5.36916 0.482893 5.60021 0.374885C5.89349 0.237787 6.05806 0.202564 6.40036 0.203637C6.65825 0.204442 6.71001 0.210306 6.86475 0.25628C7.22252 0.362621 7.5224 0.534942 7.79605 0.79147C8.08623 1.06354 8.24111 1.29031 9.22541 2.88428C10.0473 4.21527 10.8468 5.52802 10.8724 5.58884C10.9319 5.72985 10.8778 5.75216 10.7508 5.63905C10.6548 5.55354 8.57975 3.40704 7.77447 2.56018C6.7417 1.47405 6.68416 1.42733 6.38101 1.42842C6.19399 1.42909 6.07886 1.47681 5.94481 1.60927C5.80717 1.74528 5.76172 1.85514 5.76228 2.05065C5.76267 2.19116 5.77016 2.22761 5.81675 2.31598C5.88374 2.44303 5.82217 2.37742 7.51012 4.12035C8.28079 4.91613 8.97022 5.63622 9.04216 5.72054C9.67424 6.46126 10.0122 7.49433 9.9331 8.44381C9.83732 9.5935 9.30553 10.5581 8.39132 11.2405C8.18898 11.3915 7.95976 11.525 7.49052 11.7648C7.26002 11.8826 7.06192 11.9903 7.05035 12.0042C7.03532 12.0221 7.0279 13.4517 7.02442 17.0004L7.01955 21.9715L6.38101 21.3337ZM3.32724 12.511C5.24998 11.5345 5.56553 11.3698 5.64572 11.3013L5.72312 11.2351L5.72904 10.0405C5.73231 9.38345 5.72997 8.82609 5.72383 8.80194C5.71772 8.77777 5.70332 8.758 5.69185 8.758C5.66393 8.758 5.31743 9.04076 5.00718 9.31678C3.92352 10.2808 3.05267 11.391 2.33894 12.7183C2.19299 12.9898 2.15063 13.0891 2.18078 13.0891C2.18536 13.0891 2.70128 12.8289 3.32724 12.511V12.511Z" fill="#DD8595"/>
<path d="M6.37612 21.3242L5.73274 20.6709V16.6895C5.73274 14.0414 5.72622 12.7041 5.7133 12.6962C5.69575 12.6855 4.06885 13.4955 1.11785 14.9843C0.532526 15.2796 0.0508163 15.5133 0.0473914 15.5036C0.037465 15.4754 0.172777 14.9087 0.269042 14.5754C0.755414 12.8911 1.68785 11.1577 2.84169 9.79292C3.81045 8.64705 4.98654 7.65373 6.28421 6.88535C6.61201 6.69124 6.97381 6.49673 7.00702 6.49673C7.02352 6.49673 7.02917 7.0178 7.02917 8.53828C7.02917 10.2925 7.03308 10.5813 7.05688 10.5904C7.07213 10.5962 7.15481 10.5658 7.24062 10.523C7.98493 10.1513 8.48539 9.51058 8.66412 8.70058C8.71182 8.48443 8.7231 8.02269 8.68616 7.79965C8.60508 7.31018 8.39707 6.86086 8.08295 6.49673C7.95679 6.35049 7.4967 5.87011 6.64204 4.99236C4.96089 3.26576 4.86091 3.15328 4.68726 2.7935C4.58541 2.58249 4.53223 2.37138 4.51948 2.12736C4.5066 1.8808 4.53326 1.69857 4.61836 1.4516C4.70841 1.19032 4.83778 0.985501 5.04583 0.774794C5.30189 0.515506 5.55312 0.366488 5.92075 0.255854C6.07007 0.210915 6.12477 0.204553 6.37128 0.20348C6.61745 0.202406 6.67439 0.208462 6.83567 0.252807C7.19271 0.351003 7.51349 0.530607 7.79226 0.788457C8.06527 1.04098 8.24789 1.30872 9.21529 2.87475C9.89772 3.97948 10.8502 5.5439 10.8756 5.60172C10.9318 5.72987 10.8809 5.74646 10.7606 5.63915C10.6522 5.54241 8.30567 3.11541 7.57684 2.34621C6.93443 1.66821 6.81685 1.55681 6.66487 1.48215C6.43663 1.37004 6.16151 1.40979 5.96699 1.58301C5.69848 1.8221 5.67752 2.19288 5.91686 2.47057C5.96486 2.52628 6.66933 3.25878 7.48228 4.09831C8.29526 4.93788 9.01056 5.68514 9.07182 5.75892C9.50744 6.28342 9.80592 6.96502 9.90356 7.65818C9.94265 7.93559 9.93344 8.58195 9.88692 8.82514C9.70381 9.78292 9.23838 10.5625 8.49703 11.1533C8.24982 11.3503 8.03773 11.4781 7.50324 11.7522C7.25846 11.8778 7.05169 11.9867 7.04376 11.9943C7.03583 12.0019 7.02921 14.2521 7.02909 16.9946C7.02898 19.7372 7.02677 21.9803 7.0242 21.9793C7.02161 21.9783 6.72999 21.6835 6.37612 21.3242ZM3.48637 12.4347C4.86464 11.7346 5.50937 11.403 5.61403 11.3401C5.73516 11.2674 5.73274 11.2951 5.73274 9.97502C5.73274 8.92232 5.72916 8.77469 5.70347 8.76493C5.65062 8.74485 5.02056 9.27724 4.55836 9.73252C3.65066 10.6267 2.91077 11.6257 2.30538 12.7745C2.17191 13.0278 2.14909 13.0891 2.18831 13.0891C2.19354 13.0891 2.77765 12.7946 3.48637 12.4347V12.4347Z" fill="#D97587"/>
<path d="M6.35485 21.2932L5.73257 20.6616V16.6741C5.73257 13.2998 5.72847 12.6867 5.70591 12.6867C5.68046 12.6867 4.57134 13.2396 1.94971 14.5593C1.28989 14.8915 0.589896 15.2453 0.394155 15.3456C0.0719056 15.5107 0.0392047 15.5237 0.0480862 15.4823C0.372096 13.9738 0.946278 12.5768 1.7982 11.2243C2.77186 9.67844 4.12668 8.30017 5.69718 7.25779C6.17972 6.9375 6.97273 6.48368 7.00998 6.50649C7.02224 6.51398 7.029 7.23943 7.029 8.54898C7.029 10.4306 7.03138 10.5807 7.06141 10.5921C7.10088 10.6071 7.34494 10.486 7.56045 10.3445C7.75935 10.2138 8.04338 9.94451 8.20166 9.73649C8.42929 9.43728 8.61522 9.00642 8.68115 8.62531C8.72188 8.38997 8.72188 7.97628 8.68115 7.74093C8.61445 7.35533 8.44218 6.96014 8.20368 6.64546C8.0459 6.43729 7.86124 6.24132 6.56472 4.90609C5.43371 3.74133 5.26771 3.56799 5.08169 3.35732C4.80104 3.03959 4.64109 2.75301 4.55818 2.41933C4.50928 2.22257 4.51412 1.83857 4.56824 1.62184C4.70054 1.09211 5.06365 0.647741 5.5681 0.398285C5.69058 0.337727 5.75767 0.31358 6.04216 0.22765C6.09855 0.210632 6.2213 0.20174 6.39046 0.20243C6.70884 0.203752 6.90373 0.252294 7.23217 0.412102C7.59197 0.587164 7.86631 0.824375 8.14141 1.19824C8.34599 1.47625 8.80069 2.20266 10.1986 4.48451C10.7576 5.39709 10.8989 5.64034 10.8989 5.69022C10.8989 5.7447 10.8017 5.67639 10.6179 5.49285C10.2914 5.16674 8.26797 3.07017 7.65589 2.42375C7.00554 1.73692 6.81462 1.55314 6.67755 1.48202C6.58573 1.43438 6.5539 1.4284 6.39046 1.42815C6.16736 1.42781 6.07322 1.46721 5.92415 1.6233C5.79234 1.76134 5.74459 1.87208 5.74399 2.04111C5.74325 2.24695 5.81484 2.3802 6.06529 2.63908C6.17537 2.75288 6.85398 3.45397 7.5733 4.19705C8.29263 4.94013 8.93246 5.60692 8.99513 5.6788C9.44999 6.20042 9.75598 6.83722 9.87622 7.5124C9.92668 7.79576 9.94391 8.28145 9.91366 8.56837C9.81722 9.48339 9.38128 10.3543 8.7153 10.9624C8.38192 11.2668 8.15571 11.4125 7.46709 11.7668L7.03867 11.9872L7.029 16.949C7.02207 20.5027 7.01332 21.9129 6.99823 21.9178C6.98666 21.9217 6.69715 21.6406 6.35485 21.2932V21.2932ZM2.48678 12.9475C2.63839 12.8696 3.28486 12.5405 3.9234 12.2162C5.41742 11.4573 5.61601 11.353 5.67454 11.2958L5.72291 11.2485V10.0083C5.72291 8.8685 5.72032 8.76766 5.69081 8.76204C5.6722 8.75849 5.53816 8.85556 5.37154 8.99327C4.2803 9.89518 3.40813 10.903 2.68059 12.1026C2.48792 12.4203 2.1529 13.0326 2.1529 13.0671C2.1529 13.1096 2.21354 13.0879 2.48678 12.9475V12.9475Z" fill="#D5667A"/>
<path d="M6.36636 21.2957L5.73266 20.6671V16.6769C5.73266 12.9895 5.73024 12.6867 5.70089 12.6867C5.68341 12.6867 5.21976 12.9121 4.67052 13.1875C2.81088 14.1203 0.169982 15.4506 0.104348 15.4876L0.0390625 15.5244L0.0495694 15.4806C0.0553356 15.4564 0.0863531 15.3245 0.118493 15.1874C0.519747 13.4756 1.33694 11.7619 2.45173 10.2944C3.58202 8.80652 5.156 7.47084 6.80173 6.60302L7.00974 6.49332V8.51525C7.00974 9.62729 7.01502 10.5508 7.02148 10.5675C7.04023 10.6158 7.10528 10.6033 7.26966 10.5194C8.01667 10.1385 8.5269 9.46187 8.6846 8.64307C8.73549 8.37886 8.73187 7.9494 8.67661 7.69086C8.59401 7.30457 8.42938 6.93417 8.21147 6.64443C8.07118 6.45789 7.85305 6.22608 6.711 5.04984C5.13673 3.42848 5.01307 3.29602 4.84617 3.05233C4.35005 2.32798 4.43362 1.40673 5.05236 0.779361C5.2959 0.532415 5.62593 0.339089 5.92616 0.267474C5.98469 0.253503 6.04287 0.234512 6.05545 0.225256C6.09094 0.199154 6.48451 0.185951 6.60339 0.206878C7.05318 0.286082 7.46298 0.49309 7.79502 0.808815C8.12343 1.12103 8.24622 1.30884 10.1088 4.34691C10.5115 5.00377 10.841 5.54577 10.841 5.55134C10.841 5.55692 10.8552 5.59111 10.8725 5.62735C10.9534 5.79624 10.8118 5.69233 10.4499 5.31727C10.2765 5.13763 9.66842 4.5081 9.09853 3.91831C8.52861 3.32854 7.86553 2.63903 7.62502 2.38606C7.11014 1.84453 6.81386 1.55454 6.7179 1.49818C6.61266 1.43638 6.42 1.39335 6.31534 1.4083C6.09769 1.4394 5.89009 1.59454 5.79413 1.79781C5.72196 1.9507 5.7213 2.14939 5.79253 2.30009C5.8541 2.43045 5.83767 2.41281 7.43502 4.0629C8.93269 5.61 9.00467 5.6857 9.12303 5.83817C9.67372 6.54752 9.96203 7.43899 9.9248 8.31729C9.87058 9.5955 9.23945 10.6885 8.15137 11.3886C8.06091 11.4468 7.78237 11.5994 7.53241 11.7276C7.28243 11.8558 7.0626 11.9745 7.04387 11.9913C7.01156 12.0202 7.00956 12.275 7.00494 16.9731L7.00006 21.9244L6.36636 21.2957ZM3.4881 12.4435C5.43208 11.4565 5.60031 11.368 5.66991 11.2958L5.73295 11.2305L5.72796 9.99108C5.72432 9.08415 5.71706 8.74974 5.70093 8.74441C5.68879 8.74039 5.57152 8.82423 5.44032 8.93068C4.14185 9.98443 3.08859 11.2694 2.30533 12.7553C2.14934 13.0513 2.12466 13.123 2.18684 13.0997C2.20547 13.0927 2.79103 12.7974 3.4881 12.4435V12.4435Z" fill="#D25B70"/>
<path d="M6.37563 21.3054L5.7516 20.6863V16.714C5.7516 13.9467 5.74537 12.7301 5.73105 12.7036C5.71174 12.6679 5.63317 12.7043 4.43947 13.3016C3.74038 13.6514 2.47861 14.2856 1.63551 14.7111C0.792365 15.1365 0.0943457 15.4846 0.0842839 15.4846C0.0742221 15.4846 0.0616448 15.4954 0.0562656 15.5086C0.05048 15.5228 0.0458942 15.5188 0.0449847 15.4987C0.0441527 15.4801 0.0516797 15.4499 0.0617415 15.4316C0.0718033 15.4133 0.103247 15.2906 0.131632 15.1588C0.304251 14.3574 0.661097 13.3733 1.10453 12.4759C2.32476 10.0062 4.22453 8.0298 6.68308 6.67231C6.83886 6.5863 6.97601 6.51591 6.98783 6.51591C7.00347 6.51591 7.00933 7.07007 7.00933 8.54661C7.00933 10.8931 6.98487 10.6613 7.22057 10.5494C7.98063 10.1886 8.51626 9.49456 8.68612 8.65027C8.73701 8.3974 8.73236 7.93015 8.67642 7.67084C8.58091 7.22827 8.36644 6.8005 8.07333 6.468C7.94017 6.31695 7.49487 5.85309 6.59242 4.92531C4.9953 3.28338 4.86767 3.14019 4.70705 2.80984C4.59324 2.57576 4.55018 2.40323 4.53794 2.13196C4.5218 1.77423 4.57451 1.52423 4.73081 1.21708C4.85419 0.974691 5.10039 0.697025 5.33187 0.539306C5.46906 0.445825 5.75313 0.315587 5.89936 0.279156C5.9724 0.260951 6.04632 0.238759 6.06364 0.229848C6.11693 0.202386 6.4514 0.188109 6.57396 0.208058C7.03153 0.282548 7.44725 0.485858 7.78452 0.800089C8.08115 1.07647 8.28757 1.38702 9.66022 3.62216C10.8117 5.49718 10.8986 5.64261 10.8986 5.69485C10.8986 5.71687 10.838 5.69117 10.7822 5.64549C10.7083 5.58503 8.50723 3.31098 7.67378 2.434C6.774 1.48723 6.67615 1.40912 6.38974 1.40887C6.26416 1.40875 6.22648 1.41738 6.11503 1.47173C5.97209 1.54141 5.85764 1.65522 5.78638 1.79847C5.75048 1.87064 5.74199 1.91916 5.7422 2.05072C5.74243 2.19145 5.74981 2.22747 5.79632 2.31538C5.86507 2.44529 5.83274 2.4107 7.37651 4.00544C8.97228 5.65388 9.00939 5.69305 9.14536 5.87199C10.2158 7.28067 10.1805 9.2322 9.06003 10.5882C8.92313 10.7539 8.64749 11.023 8.47991 11.1545C8.22488 11.3547 7.91354 11.5375 7.3286 11.8307C7.19025 11.9 7.06399 11.9654 7.04803 11.9761C7.02239 11.9931 7.01788 12.5755 7.00933 16.9599L6.99966 21.9245L6.37563 21.3054ZM3.46947 12.4555C5.3209 11.5155 5.61656 11.361 5.67455 11.3036C5.74773 11.2311 5.75131 11.1659 5.75147 9.89721C5.75159 9.01448 5.74663 8.79699 5.72573 8.76871C5.71149 8.74943 5.69021 8.73699 5.67842 8.74107C5.61093 8.76449 4.96926 9.32229 4.62276 9.65879C4.04833 10.2167 3.64685 10.6792 3.20894 11.2877C2.85668 11.7772 2.50901 12.3449 2.26137 12.8349C2.15712 13.0412 2.13424 13.1083 2.1682 13.1083C2.17679 13.1083 2.76235 12.8145 3.46947 12.4555Z" fill="#D0556B"/>
<path d="M6.36298 21.2874L5.75181 20.6704V16.6992C5.75181 14.5151 5.74652 12.7144 5.74006 12.6977C5.7336 12.6811 5.72023 12.6674 5.71036 12.6674C5.69306 12.6674 4.40315 13.3127 1.46586 14.7909C0.699611 15.1764 0.0662965 15.501 0.0584599 15.5122C0.049946 15.5243 0.0441411 15.5195 0.0439476 15.5C0.0437928 15.4822 0.0513586 15.4629 0.0607818 15.4571C0.0701858 15.4514 0.0840401 15.4056 0.0915478 15.3554C0.14325 15.01 0.427187 14.0719 0.652843 13.5011C1.33215 11.7825 2.334 10.2538 3.62334 8.96854C4.44628 8.14821 5.33503 7.45996 6.31295 6.88575C6.58148 6.72807 6.97378 6.51581 6.99665 6.51581C7.00373 6.51581 7.00953 7.42888 7.00953 8.54485C7.00953 10.3503 7.01282 10.5766 7.03939 10.5984C7.08308 10.6343 7.42315 10.4619 7.66605 10.2807C8.86456 9.38649 9.08335 7.71011 8.15188 6.55793C8.02096 6.396 7.69408 6.05247 6.6804 5.01145C5.01586 3.30203 4.89117 3.16295 4.72186 2.82676C4.58878 2.56245 4.53262 2.32639 4.53303 2.03272C4.53398 1.3526 4.93496 0.72291 5.56798 0.407395C5.69109 0.346052 5.98091 0.249216 6.04143 0.249216C6.06128 0.249216 6.08098 0.238925 6.08522 0.226335C6.09553 0.195711 6.61699 0.192549 6.68248 0.222732C6.70803 0.234498 6.79833 0.263129 6.88314 0.286356C7.35738 0.416191 7.7889 0.733948 8.13611 1.20896C8.30488 1.43985 8.74837 2.14332 9.61516 3.55499C10.7458 5.39631 10.8475 5.56473 10.8561 5.60905C10.8608 5.63347 10.8723 5.65344 10.8817 5.65344C10.8911 5.65344 10.8981 5.66854 10.8973 5.68697C10.8964 5.70721 10.8919 5.71097 10.886 5.69644C10.8806 5.6832 10.8675 5.67762 10.857 5.68408C10.8465 5.69054 10.8156 5.67546 10.7883 5.65066C10.6948 5.56547 8.19768 2.98005 7.61647 2.36664C6.94965 1.66282 6.82333 1.54295 6.66743 1.46593C6.57037 1.418 6.5321 1.4102 6.39034 1.40948C6.2489 1.40875 6.21064 1.41605 6.11703 1.46156C5.99414 1.52135 5.85411 1.6592 5.78909 1.7844C5.75908 1.84222 5.74277 1.91356 5.73704 2.0123C5.72684 2.18736 5.77119 2.32141 5.88394 2.45642C5.92508 2.50567 6.62533 3.2344 7.44004 4.07577C8.25472 4.91714 8.97606 5.6702 9.04297 5.74926C9.66187 6.4804 9.98986 7.49986 9.91235 8.45137C9.83503 9.40036 9.43751 10.2529 8.77699 10.8864C8.42376 11.2251 8.19898 11.376 7.55132 11.7092C7.30123 11.8379 7.07701 11.9554 7.05307 11.9703L7.00953 11.9976V16.951C7.00953 19.9286 7.00249 21.9044 6.99185 21.9044C6.98213 21.9044 6.69915 21.6268 6.36298 21.2874V21.2874ZM3.4454 12.4722C5.14862 11.6069 5.59654 11.3746 5.66202 11.3223C5.70362 11.2892 5.72181 11.2535 5.73366 11.1821C5.75184 11.0722 5.75784 8.81502 5.74006 8.76914C5.72003 8.71746 5.67402 8.73484 5.53143 8.84802C4.24861 9.86604 3.1755 11.1438 2.38003 12.6004C2.13361 13.0516 2.11068 13.1082 2.17431 13.1082C2.18491 13.1082 2.7569 12.822 3.4454 12.4722V12.4722Z" fill="#CE4B62"/>
<path d="M6.36599 21.2828L5.75164 20.6628V16.6741C5.75164 13.1818 5.7481 12.6841 5.7232 12.6746C5.69483 12.6639 4.59039 13.2114 1.66886 14.6847C0.833441 15.1059 0.133428 15.4592 0.113266 15.4698C0.0789397 15.4877 0.0774304 15.4829 0.0894272 15.3933C0.0964705 15.3407 0.132887 15.1737 0.170367 15.0222C0.66626 13.0173 1.73949 11.0227 3.16976 9.44798C3.42231 9.16995 4.01093 8.59181 4.29074 8.34701C4.73313 7.95992 5.31275 7.52323 5.81936 7.19532C6.1812 6.96108 6.95269 6.5159 6.99673 6.5159C7.00358 6.5159 7.0114 7.43636 7.01411 8.56138C7.01976 10.9003 6.99582 10.6627 7.21544 10.5609C7.72747 10.3236 8.25324 9.80098 8.48327 9.30061C8.66488 8.90554 8.72133 8.64056 8.72133 8.18316C8.72133 7.68772 8.65536 7.41172 8.43515 6.98569C8.24722 6.62215 8.18544 6.55249 6.64215 4.96363C5.59171 3.88217 5.29417 3.57258 5.12272 3.38261C4.84224 3.07184 4.67264 2.78337 4.58751 2.47232C4.5258 2.24684 4.52576 1.82855 4.58741 1.60036C4.64468 1.38845 4.80128 1.08303 4.94064 0.911459C5.19789 0.594718 5.60274 0.343345 5.97979 0.266211C6.04465 0.252949 6.09403 0.2362 6.0895 0.228975C6.08501 0.22177 6.15162 0.209792 6.23753 0.202376C6.41214 0.187275 6.68563 0.206285 6.66935 0.232367C6.66355 0.241681 6.68062 0.249308 6.7073 0.249308C6.78441 0.249308 7.06368 0.342157 7.22481 0.421381C7.55661 0.584485 7.85702 0.844711 8.12131 1.19792C8.29153 1.42542 8.72833 2.11817 9.72844 3.74672C10.6989 5.32703 10.8599 5.59743 10.8599 5.64672C10.8599 5.7325 10.9801 5.85168 8.95573 3.75739C8.56291 3.35098 8.00034 2.76409 7.70555 2.45316C6.75504 1.45054 6.7018 1.40857 6.3805 1.40892C6.22934 1.40905 6.19335 1.41585 6.10794 1.46033C5.98469 1.52453 5.84324 1.66512 5.78587 1.78043C5.74949 1.85356 5.74202 1.89982 5.74226 2.05071C5.74251 2.21219 5.7486 2.24423 5.79614 2.33407C5.85769 2.4504 5.79049 2.37899 7.52217 4.16832C8.24641 4.91667 8.87829 5.57208 8.92638 5.62478C9.44261 6.19056 9.76553 6.87645 9.88277 7.65615C9.92089 7.90969 9.92029 8.42832 9.88155 8.70342C9.73239 9.76257 9.1404 10.7108 8.25742 11.3051C8.04303 11.4494 7.77136 11.6007 7.37701 11.7957C7.23334 11.8667 7.09185 11.9416 7.06258 11.9621L7.00937 11.9994V16.9519C7.00937 19.6759 7.00285 21.9041 6.99485 21.9036C6.98688 21.9032 6.70389 21.6238 6.36599 21.2828ZM3.14911 12.6276C4.3424 12.0229 5.4035 11.4794 5.55071 11.3974C5.61296 11.3627 5.68364 11.3053 5.70775 11.2699L5.75164 11.2054V10.0025C5.75164 9.34085 5.74636 8.7859 5.73989 8.76923C5.7159 8.70733 5.64893 8.74462 5.36848 8.97593C4.22013 9.92309 3.27875 11.0303 2.55074 12.2901C2.36011 12.6201 2.13325 13.054 2.13325 13.0889C2.13325 13.0995 2.1485 13.1082 2.16712 13.1081C2.18575 13.1081 2.62764 12.8918 3.14911 12.6276V12.6276ZM0.0450197 15.4926C0.0459485 15.4703 0.0505344 15.4657 0.0567069 15.481C0.062299 15.4948 0.0616024 15.5114 0.0551783 15.5177C0.0487542 15.5241 0.0441877 15.5128 0.0450197 15.4926V15.4926ZM10.8808 5.68068C10.8818 5.65836 10.8863 5.65381 10.8925 5.66911C10.8981 5.68292 10.8974 5.69946 10.891 5.70582C10.8846 5.71219 10.88 5.70088 10.8808 5.68068V5.68068Z" fill="#CB425B"/>
<path d="M6.36558 21.2762L5.75162 20.667V12.6675H5.71224C5.67503 12.6675 4.61934 13.1931 1.46962 14.7799C0.716182 15.1595 0.0950192 15.4654 0.0892724 15.4597C0.0598609 15.4306 0.26636 14.6333 0.430271 14.1431C0.890503 12.767 1.58519 11.4567 2.47238 10.2912C3.42782 9.03602 4.68054 7.90332 6.05154 7.05484C6.39844 6.84015 6.94584 6.53506 6.98413 6.53506C7.00443 6.53506 7.0101 6.92075 7.01409 8.57122L7.01902 10.6074L7.06078 10.6133C7.08375 10.6165 7.17517 10.5831 7.26395 10.539C8.01739 10.1646 8.56314 9.43781 8.70085 8.62534C8.7401 8.39375 8.74056 7.97208 8.70182 7.74968C8.62233 7.29358 8.412 6.84501 8.1147 6.49752C7.98718 6.34846 7.48455 5.82299 6.60223 4.91625C4.95913 3.2277 4.89342 3.15365 4.71421 2.78852C4.58257 2.52034 4.54652 2.35965 4.54652 2.04112C4.54652 1.74117 4.57787 1.58759 4.69288 1.32415C4.91163 0.82301 5.39752 0.417138 5.94187 0.280863C6.03939 0.256448 6.11456 0.23188 6.10889 0.226246C6.10322 0.220612 6.16023 0.210033 6.23555 0.202674C6.39664 0.18696 6.6967 0.208117 6.65792 0.232455C6.63963 0.243953 6.64586 0.248802 6.67916 0.249013C6.76132 0.249511 7.01339 0.327086 7.17542 0.401749C7.52443 0.562496 7.82989 0.818794 8.1004 1.17777C8.3084 1.45381 8.93847 2.4626 10.6326 5.23191C10.8877 5.64884 10.9248 5.76038 10.7587 5.6104C10.7207 5.57615 10.2778 5.12124 9.77433 4.5995C9.2709 4.07777 8.68412 3.46979 8.4704 3.24845C8.25668 3.02711 7.88921 2.64335 7.65379 2.39566C6.78234 1.47872 6.70364 1.41542 6.41918 1.40274C6.20982 1.39338 6.07892 1.44164 5.93432 1.58144C5.74903 1.76062 5.67935 1.98331 5.74169 2.19718C5.80361 2.4097 5.66882 2.25923 7.39597 4.04375C8.11516 4.78683 8.77336 5.46861 8.85865 5.55881C9.39998 6.13129 9.72199 6.77198 9.86466 7.56033C9.90655 7.79177 9.92217 8.31519 9.89463 8.56459C9.76538 9.73518 9.14878 10.7271 8.15098 11.3696C8.06052 11.4278 7.76882 11.5878 7.50276 11.725L7.01902 11.9746L7.01415 16.93C7.01147 19.6554 7.00257 21.8853 6.99441 21.8853C6.98624 21.8853 6.70324 21.6112 6.36556 21.2762H6.36558ZM3.38771 12.5117C4.95343 11.7166 5.55317 11.4079 5.62883 11.3583C5.75771 11.2737 5.7516 11.3419 5.7516 9.99023C5.7516 8.77323 5.74903 8.71974 5.69044 8.71974C5.68233 8.71974 5.57306 8.80307 5.4476 8.90488C4.47042 9.69804 3.60764 10.6436 2.94124 11.6518C2.57268 12.2094 2.11458 13.0326 2.1385 13.0943C2.14556 13.1125 2.15669 13.1274 2.16325 13.1274C2.16981 13.1274 2.72081 12.8503 3.38771 12.5117V12.5117ZM0.0450197 15.4926C0.0459485 15.4703 0.0505344 15.4657 0.0567069 15.481C0.062299 15.4948 0.0616024 15.5114 0.0551783 15.5177C0.0487542 15.5241 0.0441877 15.5128 0.0450197 15.4926Z" fill="#C93953"/>
<path d="M6.37567 21.2763L5.77099 20.6629V16.7047C5.77099 14.1103 5.76431 12.7292 5.75164 12.6961C5.73666 12.6571 5.72339 12.6485 5.69316 12.658C5.64986 12.6716 3.7491 13.6235 1.5355 14.7401C0.743755 15.1395 0.0934132 15.4637 0.0902205 15.4605C0.0870472 15.4574 0.104771 15.3598 0.129597 15.2437C0.445519 13.7664 1.21028 12.075 2.192 10.6823C3.24586 9.18722 4.67903 7.8704 6.29343 6.91372C6.52936 6.77393 6.96318 6.53496 6.98106 6.53496C6.98599 6.53496 6.99002 7.43975 6.99002 8.5456C6.99002 9.65145 6.9953 10.5699 7.00176 10.5866C7.05052 10.7124 7.59003 10.4063 7.96019 10.0429C8.92405 9.09646 9.01097 7.59484 8.16253 6.5469C8.02967 6.3828 7.7313 6.06934 6.56419 4.8677C5.37955 3.64802 5.21401 3.47443 5.04623 3.27593C4.69397 2.85915 4.55237 2.50704 4.5521 2.04706C4.5519 1.71645 4.6116 1.47742 4.76614 1.19015C4.93909 0.868696 5.21707 0.605403 5.56782 0.430839C5.76425 0.333065 6.0159 0.251906 6.13689 0.247287L6.18701 0.245371L6.13863 0.231439C6.0597 0.208653 6.36357 0.186729 6.52797 0.203325C6.63439 0.214057 6.65844 0.221243 6.62237 0.231554C6.57601 0.244815 6.57648 0.245467 6.63325 0.247287C6.74339 0.250852 6.99872 0.328005 7.17837 0.412039C7.53552 0.579091 7.82548 0.822051 8.09734 1.18204C8.26288 1.40122 8.77911 2.21981 9.75094 3.80411C10.8564 5.60622 10.8952 5.67259 10.8435 5.67259C10.8331 5.67259 10.2472 5.0754 9.54169 4.34549C7.85547 2.60105 7.98354 2.73422 7.51884 2.24225C6.97589 1.66741 6.82133 1.52347 6.67392 1.45534C6.38726 1.32288 6.11131 1.38022 5.8902 1.61816C5.78181 1.73481 5.72863 1.85629 5.7178 2.01198C5.70802 2.15222 5.75096 2.29414 5.84423 2.42998C5.87312 2.47206 6.56806 3.19947 7.38852 4.04643C8.20901 4.89338 8.92992 5.6424 8.99054 5.71091C9.23454 5.98661 9.49299 6.41133 9.63889 6.77643C10.2127 8.21222 9.84127 9.88006 8.71432 10.9279C8.38892 11.2304 8.11286 11.4086 7.43038 11.7568C7.20965 11.8693 7.02245 11.9715 7.01436 11.9839C7.00627 11.9962 6.99534 14.23 6.99002 16.948L6.98034 21.8897L6.37567 21.2763ZM3.2495 12.5887C4.76848 11.8173 5.53779 11.4221 5.62055 11.3708C5.76985 11.2782 5.76058 11.3619 5.76745 10.0409C5.77083 9.39115 5.76594 8.83022 5.75655 8.7944C5.74678 8.75701 5.72532 8.72656 5.70619 8.72292C5.63833 8.70999 4.99722 9.25524 4.49374 9.75415C3.57782 10.6617 2.80382 11.725 2.2015 12.903C2.11268 13.0767 2.10382 13.1273 2.16222 13.1273C2.17689 13.1273 2.66616 12.885 3.24948 12.5887H3.2495ZM0.0450004 15.4925C0.0459485 15.4702 0.0505344 15.4656 0.0567069 15.4809C0.062299 15.4947 0.0616024 15.5113 0.0551783 15.5176C0.0487542 15.524 0.0441877 15.5127 0.0450197 15.4925H0.0450004Z" fill="#C7324D"/>
<path d="M6.37572 21.2624L5.7711 20.6526L5.76621 16.6552L5.76133 12.6578L5.72186 12.6523C5.68372 12.6468 4.59519 13.1872 1.53535 14.7305C0.754204 15.1244 0.110576 15.4424 0.1051 15.4369C0.0996245 15.4315 0.114717 15.3387 0.138653 15.2306C0.550026 13.3724 1.59868 11.305 2.9032 9.78045C4.00678 8.4907 5.32157 7.43348 6.84008 6.61484L6.99004 6.53399V10.6162L7.03849 10.6282C7.1636 10.6593 7.6754 10.3422 7.96787 10.0523C8.27551 9.74749 8.47657 9.42386 8.61585 9.00945C8.87016 8.25263 8.75621 7.39654 8.31284 6.73324C8.15674 6.49968 7.97817 6.3073 6.65244 4.94438C5.2049 3.45627 5.05037 3.29058 4.87943 3.04342C4.74832 2.85389 4.66467 2.68028 4.6042 2.47224C4.54271 2.26069 4.54387 1.81825 4.60647 1.60028C4.72835 1.17588 5.01291 0.784686 5.37101 0.549296C5.60232 0.39723 5.98285 0.254134 6.17615 0.246506L6.24507 0.243785L6.16768 0.231137C6.0331 0.209137 6.3984 0.185872 6.54499 0.207105C6.65529 0.223088 6.66123 0.225905 6.59337 0.230045C6.52284 0.234318 6.52628 0.236196 6.63207 0.251144C7.17759 0.32826 7.71058 0.675643 8.11123 1.21522C8.29424 1.46171 9.91479 4.0656 10.7308 5.42432C10.8551 5.63129 10.8709 5.68878 10.7802 5.60433C10.6654 5.49745 8.19504 2.9399 7.60582 2.31799C6.92943 1.60406 6.85306 1.5324 6.68044 1.44973C6.56769 1.39571 6.53664 1.38952 6.38052 1.38986C6.16412 1.39034 6.06234 1.43369 5.90355 1.593C5.7546 1.74252 5.70615 1.86913 5.71745 2.07938C5.72664 2.25021 5.77399 2.365 5.89382 2.50706C5.93111 2.55127 6.55668 3.20183 7.28398 3.95277C8.01127 4.70368 8.69708 5.41294 8.80796 5.52888C9.34185 6.08703 9.67258 6.70252 9.8271 7.42547C9.89463 7.74145 9.91329 8.36952 9.86499 8.7005C9.7653 9.38352 9.47358 10.0449 9.04089 10.569C8.87516 10.7697 8.53133 11.089 8.3245 11.2342C8.07849 11.4068 7.97066 11.4688 7.447 11.738L6.99971 11.9679L6.99004 16.9201L6.98036 21.8723L6.37572 21.2624ZM3.27359 12.5864C4.58573 11.9202 5.45979 11.4725 5.58993 11.4C5.77461 11.2973 5.76058 11.4065 5.76689 10.0228C5.76994 9.35351 5.7676 8.78649 5.76168 8.76279C5.74254 8.68613 5.66547 8.70874 5.50342 8.83868C4.13192 9.93815 3.09787 11.1958 2.24275 12.8044C2.09274 13.0865 2.07724 13.1667 2.1789 13.1348C2.20024 13.1281 2.69283 12.8813 3.27357 12.5864H3.27359ZM0.0450197 15.4925C0.0459485 15.4702 0.0505344 15.4656 0.0567069 15.4809C0.062299 15.4948 0.0616024 15.5113 0.0551783 15.5177C0.0487542 15.524 0.0441877 15.5127 0.0450197 15.4925V15.4925Z" fill="#C62B47"/>
</svg>
