<svg width="33" height="23" viewBox="0 0 33 23" fill="none" xmlns="http://www.w3.org/2000/svg">
<g clip-path="url(#clip0)">
<path d="M10.1017 18.5746H9.2083C9.17671 17.0584 9.0897 15.633 8.94745 14.2973H8.93951L7.57929 18.5746H6.89909L5.54699 14.2973H5.53922C5.43892 15.5797 5.37573 17.0055 5.34949 18.5746H4.53516C4.58764 16.6665 4.71953 14.8776 4.93033 13.2078H6.03763L7.32637 17.1513H7.33431L8.631 13.2078H9.69048C9.92251 15.1636 10.0596 16.9527 10.1017 18.5746V18.5746ZM13.9762 14.615C13.6125 16.5996 13.1325 18.0417 12.5369 18.9419C12.0729 19.6348 11.5645 19.9816 11.0108 19.9816C10.8632 19.9816 10.6811 19.9368 10.4653 19.848V19.3694C10.5708 19.3847 10.6945 19.3934 10.8368 19.3934C11.0954 19.3934 11.3033 19.3218 11.4618 19.1785C11.6513 19.0039 11.7461 18.8075 11.7461 18.5904C11.7461 18.4415 11.6722 18.137 11.5248 17.676L10.5444 14.6148H11.422L12.1257 16.9043C12.2839 17.4241 12.3498 17.7871 12.3234 17.9938C12.7082 16.9605 12.977 15.8338 13.1301 14.6146H13.9762V14.615V14.615Z" fill="#5D87A1"/>
<path d="M25.8687 18.5746H23.3309V13.2078H24.1846V17.914H25.8687V18.5746ZM22.6666 18.7043L21.6853 18.2174C21.7723 18.1455 21.8555 18.0678 21.9305 17.9777C22.3476 17.4851 22.5556 16.7566 22.5556 15.7916C22.5556 14.0161 21.8626 13.1279 20.4762 13.1279C19.7963 13.1279 19.266 13.3532 18.8867 13.804C18.4699 14.297 18.2619 15.0229 18.2619 15.9826C18.2619 16.926 18.4463 17.618 18.8152 18.057C19.1527 18.4547 19.6615 18.6538 20.3418 18.6538C20.5956 18.6538 20.8285 18.6225 21.0407 18.5595L22.3182 19.3073L22.6666 18.7043ZM19.4878 17.5007C19.2717 17.1511 19.1636 16.5898 19.1636 15.8158C19.1636 14.4645 19.5719 13.788 20.3893 13.788C20.8166 13.788 21.1298 13.9498 21.33 14.2727C21.5458 14.6228 21.6544 15.1791 21.6544 15.9423C21.6544 17.3047 21.2458 17.986 20.4289 17.986C20.0014 17.9862 19.6882 17.8249 19.4878 17.5007V17.5007ZM17.8899 17.0871C17.8899 17.5422 17.7238 17.9155 17.392 18.208C17.0598 18.4993 16.6144 18.6453 16.0563 18.6453C15.5342 18.6453 15.028 18.4776 14.5381 18.144L14.7675 17.6831C15.1891 17.8954 15.5708 18.0009 15.9135 18.0009C16.2351 18.0009 16.4865 17.9293 16.6688 17.7871C16.8509 17.6444 16.9595 17.4443 16.9595 17.1912C16.9595 16.8723 16.7384 16.5998 16.3327 16.3716C15.9586 16.165 15.2103 15.7332 15.2103 15.7332C14.8048 15.436 14.6018 15.117 14.6018 14.5914C14.6018 14.1564 14.7532 13.8052 15.0562 13.5381C15.3595 13.2699 15.7509 13.1363 16.2306 13.1363C16.7261 13.1363 17.1765 13.2697 17.5822 13.5339L17.3764 13.9949C17.0294 13.8467 16.6869 13.7726 16.3491 13.7726C16.0754 13.7726 15.8641 13.8387 15.7172 13.9715C15.5691 14.1038 15.4778 14.273 15.4778 14.4806C15.4778 14.7979 15.7036 15.0739 16.1203 15.3067C16.4994 15.5136 17.2663 15.9529 17.2663 15.9529C17.6822 16.2495 17.8899 16.5656 17.8899 17.0871" fill="#F8981D"/>
<path d="M26.94 11.4102C26.4238 11.397 26.0242 11.4492 25.6887 11.5919C25.5919 11.6308 25.4379 11.6308 25.4244 11.7538C25.4767 11.8059 25.4828 11.8899 25.5282 11.9618C25.6055 12.0914 25.7404 12.2659 25.8635 12.3568C25.9986 12.461 26.1343 12.5641 26.2766 12.6549C26.5274 12.8109 26.8118 12.9017 27.0562 13.0572C27.1986 13.1477 27.3402 13.2647 27.4828 13.362C27.5529 13.4139 27.5978 13.4981 27.6888 13.5306V13.5108C27.6432 13.4525 27.6302 13.3681 27.5855 13.3032L27.3918 13.1154C27.2047 12.8626 26.9721 12.642 26.7213 12.4608C26.5148 12.3178 26.0632 12.1234 25.9795 11.8842L25.9663 11.871C26.1083 11.8576 26.2766 11.8059 26.4114 11.7662C26.6308 11.708 26.8309 11.7212 27.056 11.6631C27.1596 11.637 27.2623 11.6044 27.3663 11.5723V11.5138C27.2496 11.397 27.1664 11.2418 27.0436 11.1314C26.7153 10.8462 26.3534 10.5673 25.9795 10.3338C25.7792 10.2038 25.5216 10.1201 25.3084 10.0096C25.2316 9.9705 25.1021 9.95124 25.0569 9.88632C24.9412 9.74364 24.8761 9.55583 24.7922 9.38694C24.6058 9.03058 24.4247 8.63517 24.2638 8.25834C24.1474 8.00561 24.0766 7.75323 23.9347 7.51942C23.2701 6.4172 22.5483 5.74963 21.4389 5.09437C21.2005 4.95794 20.9168 4.89979 20.6139 4.82828L20.13 4.80259C20.0267 4.75711 19.9233 4.6337 19.8332 4.57538C19.4651 4.34209 18.5175 3.83646 18.2468 4.50404C18.0725 4.926 18.5047 5.34085 18.6532 5.55487C18.7628 5.70345 18.9049 5.87252 18.9816 6.04124C19.027 6.15146 19.0398 6.26845 19.0852 6.38492C19.1884 6.67028 19.2849 6.98775 19.4206 7.25402C19.4914 7.38976 19.5685 7.53244 19.659 7.65533C19.7108 7.72719 19.8009 7.75896 19.8206 7.87612C19.7306 8.00526 19.7236 8.20019 19.672 8.36231C19.4399 9.09498 19.5306 10.0026 19.8594 10.5411C19.9623 10.7032 20.2078 11.06 20.5362 10.9233C20.8269 10.8066 20.7625 10.4371 20.8461 10.113C20.8652 10.0347 20.8526 9.98335 20.8913 9.93197V9.94464C20.9812 10.126 21.072 10.3008 21.1554 10.4827C21.3555 10.8002 21.7039 11.131 21.9941 11.351C22.1486 11.4683 22.271 11.669 22.4646 11.7406V11.7212H22.4518C22.4126 11.6631 22.3553 11.637 22.3038 11.5919C22.1875 11.4751 22.0587 11.3324 21.9684 11.2029C21.698 10.8396 21.4588 10.4374 21.2464 10.0224C21.1425 9.82106 21.0529 9.60096 20.9692 9.39996C20.9301 9.32237 20.9301 9.20538 20.8654 9.16632C20.7684 9.30883 20.627 9.43224 20.5562 9.60686C20.4335 9.88615 20.4207 10.2297 20.3751 10.5869L20.3497 10.5994C20.1443 10.5475 20.0728 10.3338 19.9948 10.1524C19.8016 9.69174 19.7691 8.9523 19.9368 8.42081C19.9817 8.2849 20.1759 7.85685 20.0984 7.72737C20.0595 7.60326 19.9304 7.53261 19.8596 7.43489C19.7764 7.31199 19.6852 7.15647 19.6272 7.02004C19.4726 6.65709 19.3947 6.25491 19.2281 5.89213C19.1502 5.72307 19.0151 5.5481 18.9056 5.3924C18.7827 5.21744 18.6475 5.0942 18.5503 4.88677C18.5182 4.81543 18.4732 4.69879 18.5248 4.6212C18.5374 4.56913 18.5636 4.54969 18.6151 4.53667C18.6986 4.46568 18.9374 4.55594 19.0211 4.59499C19.2602 4.69219 19.4601 4.78297 19.6597 4.91906C19.75 4.98415 19.8468 5.10739 19.9627 5.13985H20.0984C20.3043 5.18498 20.5365 5.15235 20.7304 5.21102C21.072 5.32141 21.3816 5.48336 21.6592 5.65815C22.5039 6.19676 23.2005 6.96206 23.6708 7.87612C23.7479 8.02505 23.7807 8.16148 23.8512 8.31683C23.987 8.63483 24.155 8.95907 24.2899 9.27029C24.4254 9.57492 24.5545 9.88597 24.748 10.139C24.8445 10.2751 25.2323 10.3465 25.4061 10.4178C25.5348 10.476 25.735 10.5277 25.851 10.599C26.0704 10.7349 26.289 10.891 26.4953 11.0404C26.598 11.1182 26.9209 11.2803 26.94 11.4102V11.4102ZM20.3615 5.77514C20.2724 5.77421 20.1837 5.78519 20.0975 5.80777V5.82079H20.1099C20.1619 5.92442 20.2522 5.99628 20.3166 6.08671C20.3685 6.19069 20.4136 6.29379 20.4645 6.39759L20.477 6.38475C20.5679 6.32 20.6132 6.2162 20.6132 6.0605C20.574 6.01468 20.5679 5.9699 20.5353 5.92442C20.4973 5.8595 20.4136 5.82722 20.3615 5.77514" fill="#5D87A1"/>
<path d="M27.5544 18.5737H27.688V17.9162H27.4876L27.3241 18.3649L27.1464 17.9162H26.9534V18.5737H27.0796V18.0734H27.0867L27.2728 18.5737H27.369L27.5544 18.0734V18.5737ZM26.478 18.5737H26.6194V18.0276H26.8044V17.916H26.2852V18.0276H26.4776L26.478 18.5737Z" fill="#F8981D"/>
</g>
<defs>
<clipPath id="clip0">
<rect width="33" height="23" fill="white"/>
</clipPath>
</defs>
</svg>
