<svg width="24" height="24" viewBox="0 0 24 24" fill="none" xmlns="http://www.w3.org/2000/svg">
<path d="M12 21.5625C17.2812 21.5625 21.5625 17.2812 21.5625 12C21.5625 6.71878 17.2812 2.4375 12 2.4375C6.71878 2.4375 2.4375 6.71878 2.4375 12C2.4375 17.2812 6.71878 21.5625 12 21.5625Z" stroke="#001757"/>
<path d="M11.9375 19.6875C16.2177 19.6875 19.6875 16.2177 19.6875 11.9375C19.6875 7.65729 16.2177 4.1875 11.9375 4.1875C7.65729 4.1875 4.1875 7.65729 4.1875 11.9375C4.1875 16.2177 7.65729 19.6875 11.9375 19.6875Z" stroke="#001757"/>
<path d="M12 17.9375C15.2792 17.9375 17.9375 15.2792 17.9375 12C17.9375 8.72081 15.2792 6.0625 12 6.0625C8.72081 6.0625 6.0625 8.72081 6.0625 12C6.0625 15.2792 8.72081 17.9375 12 17.9375Z" stroke="#001757"/>
<path d="M12 16.1876C14.3127 16.1876 16.1875 14.3128 16.1875 12.0001C16.1875 9.68743 14.3127 7.81262 12 7.81262C9.68731 7.81262 7.8125 9.68743 7.8125 12.0001C7.8125 14.3128 9.68731 16.1876 12 16.1876Z" stroke="#001757"/>
<path d="M12 14.0625C13.1391 14.0625 14.0625 13.1391 14.0625 12C14.0625 10.8609 13.1391 9.9375 12 9.9375C10.8609 9.9375 9.9375 10.8609 9.9375 12C9.9375 13.1391 10.8609 14.0625 12 14.0625Z" stroke="#001757"/>
<path d="M11.9779 12.5C12.1673 12.5004 12.3407 12.3938 12.4257 12.2246L12.8746 11.3316L12.8746 11.3316L16.2705 4.57528L16.2706 4.57521L16.4468 4.22447C16.5247 4.06947 16.5166 3.88519 16.4256 3.73754C16.3345 3.5899 16.1735 3.5 16 3.5H15.3773H8.62093H8C7.82691 3.5 7.66613 3.58952 7.57496 3.73667C7.4838 3.88381 7.47523 4.06763 7.55229 4.22262L7.72633 4.57261L7.72635 4.57266L11.0868 11.3289L11.0868 11.3289L11.5313 12.2227C11.6157 12.3922 11.7886 12.4996 11.9779 12.5Z" fill="#EF0AA1" stroke="#EF0AA1" stroke-linecap="round" stroke-linejoin="round"/>
</svg>
