<svg width="20" height="20" viewBox="0 0 20 20" fill="none" xmlns="http://www.w3.org/2000/svg">
<path d="M19.7781 12.9919C19.7581 13.0339 19.7221 13.0699 19.6761 13.0879L10.0701 16.9059C10.0481 16.9159 10.0221 16.9199 9.99815 16.9199C9.97415 16.9199 9.94815 16.9139 9.92615 16.9059L0.324148 13.0879C0.278148 13.0679 0.242148 13.0339 0.222148 12.9919C0.210148 13.0159 0.202148 13.0439 0.202148 13.0739C0.204148 13.1519 0.204148 15.7159 0.202148 15.7939C0.202148 15.8719 0.250148 15.9419 0.324148 15.9699L9.93015 19.7879C9.95215 19.7959 9.97815 19.8019 10.0021 19.8019C10.0261 19.8019 10.0521 19.7979 10.0741 19.7879L19.6801 15.9699C19.7541 15.9399 19.8001 15.8699 19.8041 15.7939C19.8021 15.7159 19.8021 13.1519 19.8041 13.0739C19.7981 13.0439 19.7901 13.0159 19.7781 12.9919Z" fill="#001D6D"/>
<path d="M19.7781 8.52393C19.7581 8.56593 19.7221 8.60193 19.6761 8.61993L10.0701 12.4379C10.0481 12.4479 10.0221 12.4519 9.99815 12.4519C9.97415 12.4519 9.94815 12.4459 9.92615 12.4379L0.324148 8.61993C0.278148 8.59993 0.242148 8.56593 0.222148 8.52393C0.210148 8.54993 0.202148 8.57793 0.202148 8.60593C0.204148 8.68393 0.204148 11.2479 0.202148 11.3259C0.204148 11.4039 0.252148 11.4759 0.326148 11.5039L9.92815 15.3199C9.95015 15.3279 9.97615 15.3339 10.0001 15.3339C10.0241 15.3339 10.0501 15.3299 10.0721 15.3199L19.6781 11.5019C19.7521 11.4719 19.7981 11.4019 19.8021 11.3259C19.8001 11.2479 19.8001 8.68393 19.8021 8.60593C19.7981 8.57793 19.7901 8.54993 19.7781 8.52393Z" fill="#EF0AA1"/>
<path d="M19.7982 4.208C19.7962 4.13 19.7482 4.06 19.6742 4.032L10.0702 0.211998C10.0482 0.203998 10.0222 0.197998 9.99819 0.197998C9.97419 0.197998 9.94819 0.201998 9.9262 0.211998L0.324195 4.03C0.250195 4.06 0.202195 4.13 0.200195 4.208C0.202195 4.286 0.202195 6.85 0.200195 6.928C0.202195 7.006 0.250195 7.076 0.324195 7.106L9.93019 10.924C9.9522 10.932 9.9782 10.938 10.0022 10.938C10.0262 10.938 10.0522 10.934 10.0742 10.924L19.6802 7.106C19.7542 7.076 19.8002 7.006 19.8042 6.93C19.7962 6.85 19.7962 4.288 19.7982 4.208ZM6.7162 2.536L8.5422 2.184L8.1542 1.404C8.1462 1.388 8.1482 1.37 8.1602 1.358C8.17219 1.346 8.1902 1.342 8.2042 1.348L9.75819 1.948L11.5922 1.594C11.6102 1.592 11.6282 1.6 11.6362 1.616C11.6442 1.634 11.6402 1.654 11.6262 1.666L10.8082 2.354L12.3422 2.948C12.3622 2.954 12.3722 2.976 12.3662 2.996C12.3622 3.014 12.3442 3.028 12.3242 3.026L10.2002 2.872L9.31619 3.618C9.31019 3.624 9.30019 3.628 9.2902 3.628C9.28819 3.628 9.28419 3.628 9.2822 3.626C9.2702 3.624 9.2602 3.616 9.2542 3.606L8.83619 2.774L6.7202 2.62C6.7002 2.618 6.6842 2.602 6.6822 2.582C6.6842 2.558 6.6962 2.54 6.7162 2.536ZM5.1822 5.268C4.5642 5.268 3.9782 5.168 3.5322 4.986C3.0842 4.802 2.8382 4.558 2.8402 4.3C2.8422 4.052 3.0702 3.826 3.4882 3.662C3.8822 3.508 4.4082 3.422 4.9702 3.422C5.5762 3.422 6.1562 3.518 6.5982 3.696C7.0582 3.878 7.3122 4.124 7.3122 4.388C7.3142 4.632 7.0922 4.856 6.6922 5.018C6.2942 5.18 5.7602 5.268 5.1822 5.268ZM11.4142 5.622L10.4282 7.5C10.4222 7.514 10.4082 7.522 10.3922 7.522C10.3862 7.522 10.3822 7.52 10.3762 7.52L6.8902 6.098C6.8742 6.092 6.8622 6.074 6.86619 6.054C6.8682 6.036 6.8842 6.022 6.9022 6.02L11.3762 5.566C11.3902 5.564 11.4062 5.572 11.4142 5.584C11.4202 5.592 11.4202 5.608 11.4142 5.622ZM17.1582 4.358L14.7522 5.346C14.7462 5.348 14.7422 5.348 14.7362 5.348C14.7302 5.348 14.7242 5.346 14.7202 5.346L11.9842 4.22C11.9702 4.214 11.9602 4.198 11.9602 4.182C11.9602 4.166 11.9702 4.15 11.9842 4.144L14.4002 3.184C14.4102 3.18 14.4202 3.18 14.4302 3.184L17.1562 4.282C17.1722 4.288 17.1802 4.302 17.1802 4.32C17.1822 4.338 17.1742 4.354 17.1582 4.358Z" fill="#001D6D"/>
</svg>
