<svg width="24" height="24" viewBox="0 0 24 24" fill="none" xmlns="http://www.w3.org/2000/svg">
<g clip-path="url(#clip0)">
<path fill-rule="evenodd" clip-rule="evenodd" d="M20.242 4H3.758C3.29191 4.00053 2.84507 4.18592 2.51549 4.51549C2.18592 4.84507 2.00053 5.29191 2 5.758V18.336C2.00053 18.8021 2.18592 19.2489 2.51549 19.5785C2.84507 19.9081 3.29191 20.0935 3.758 20.094C20.32 20.099 3.739 20.094 20.242 20.094C20.7081 20.0935 21.1549 19.9081 21.4845 19.5785C21.8141 19.2489 21.9995 18.8021 22 18.336V5.758C21.9995 5.29191 21.8141 4.84507 21.4845 4.51549C21.1549 4.18592 20.7081 4.00053 20.242 4ZM3.758 5.172H20.242C20.3973 5.17226 20.5462 5.23409 20.6561 5.34393C20.7659 5.45377 20.8277 5.60266 20.828 5.758V16.109H3.172V5.758C3.17226 5.60266 3.23409 5.45377 3.34393 5.34393C3.45377 5.23409 3.60266 5.17226 3.758 5.172ZM20.242 18.922H3.758C3.60266 18.9217 3.45377 18.8599 3.34393 18.7501C3.23409 18.6402 3.17226 18.4913 3.172 18.336V17.281H20.828V18.336C20.8277 18.4913 20.7659 18.6402 20.6561 18.7501C20.5462 18.8599 20.3973 18.9217 20.242 18.922Z" fill="#001D6D"/>
<path d="M8.5 8.09998H6C5.72386 8.09998 5.5 8.32383 5.5 8.59998V11.1C5.5 11.3761 5.72386 11.6 6 11.6H8.5C8.77614 11.6 9 11.3761 9 11.1V8.59998C9 8.32383 8.77614 8.09998 8.5 8.09998Z" stroke="#EF0AA1"/>
<path d="M9 13H5.5C5.22386 13 5 13.2239 5 13.5C5 13.7761 5.22386 14 5.5 14H9C9.27614 14 9.5 13.7761 9.5 13.5C9.5 13.2239 9.27614 13 9 13Z" fill="#EF0AA1"/>
<path d="M5.5 13.5H9H5.5Z" stroke="#EF0AA1"/>
<path d="M13.5 8.09998H11C10.7239 8.09998 10.5 8.32383 10.5 8.59998V11.1C10.5 11.3761 10.7239 11.6 11 11.6H13.5C13.7761 11.6 14 11.3761 14 11.1V8.59998C14 8.32383 13.7761 8.09998 13.5 8.09998Z" stroke="#EF0AA1"/>
<path d="M14 13H10.5C10.2239 13 10 13.2239 10 13.5C10 13.7761 10.2239 14 10.5 14H14C14.2761 14 14.5 13.7761 14.5 13.5C14.5 13.2239 14.2761 13 14 13Z" fill="#EF0AA1"/>
<path d="M10.5 13.5H14H10.5Z" stroke="#EF0AA1"/>
<path d="M18.5 8.09998H16C15.7239 8.09998 15.5 8.32383 15.5 8.59998V11.1C15.5 11.3761 15.7239 11.6 16 11.6H18.5C18.7761 11.6 19 11.3761 19 11.1V8.59998C19 8.32383 18.7761 8.09998 18.5 8.09998Z" stroke="#EF0AA1"/>
<path d="M19 13H15.5C15.2239 13 15 13.2239 15 13.5C15 13.7761 15.2239 14 15.5 14H19C19.2761 14 19.5 13.7761 19.5 13.5C19.5 13.2239 19.2761 13 19 13Z" fill="#EF0AA1"/>
<path d="M15.5 13.5H19H15.5Z" stroke="#EF0AA1"/>
</g>
<defs>
<clipPath id="clip0">
<rect x="2" y="4" width="20" height="16.096" fill="white"/>
</clipPath>
</defs>
</svg>
