<svg width="24" height="24" viewBox="0 0 24 24" fill="none" xmlns="http://www.w3.org/2000/svg">
<path d="M12.8143 14.3856V11.7989C12.8143 11.3826 12.4769 11.0452 12.0605 11.0452C11.6442 11.0452 11.3068 11.3826 11.3068 11.7989V15.0653C11.3068 15.4816 11.6442 15.8191 12.0605 15.8191C13.349 15.8191 14.3972 16.8673 14.3972 18.1557C14.3972 19.4442 13.349 20.4924 12.0605 20.4924C10.7721 20.4924 9.72385 19.4442 9.72385 18.1557C9.72385 17.7394 9.38643 17.402 8.97006 17.402C8.55373 17.402 8.21631 17.7394 8.21631 18.1557C8.21631 20.2756 9.94069 22 12.0605 22C14.1804 22 15.9048 20.2754 15.9048 18.1557C15.9048 16.2939 14.5744 14.7369 12.8143 14.3856Z" fill="#EF0AA1"/>
<path d="M18.8545 5.06759L15.4371 2.17813C15.3009 2.06309 15.1283 2 14.9501 2H9.17122C8.99309 2 8.82047 2.06309 8.68426 2.17813L5.26721 5.06759C4.99182 5.30025 4.91999 5.69525 5.09534 6.01006L8.51242 12.1407C8.64559 12.3795 8.89758 12.5274 9.17098 12.5274H14.9499C15.2233 12.5274 15.4753 12.3797 15.6087 12.1407L19.0261 6.01006C19.2017 5.69548 19.1296 5.30025 18.8545 5.06759ZM14.5072 11.0202H9.61395L6.71468 5.8181L9.44711 3.50754H14.674L17.407 5.8181L14.5072 11.0202Z" fill="#001D6D"/>
</svg>
