<svg width="24" height="24" viewBox="0 0 24 24" fill="none" xmlns="http://www.w3.org/2000/svg">
<path d="M8.19007 8.53498L6.76506 9.07495C6.66895 9.11538 6.58441 9.1791 6.51896 9.26026C6.45351 9.34141 6.4092 9.43747 6.39006 9.53995C6.37394 9.64273 6.38482 9.74798 6.42164 9.84528C6.45846 9.94258 6.51996 10.0287 6.60008 10.095L7.56005 10.89C7.66474 10.9786 7.79788 11.0266 7.93505 11.025C8.02277 11.0235 8.10925 11.004 8.1892 10.9679C8.26916 10.9318 8.3409 10.8798 8.40005 10.815C8.49883 10.6914 8.5448 10.5338 8.52795 10.3765C8.51109 10.2191 8.43278 10.0749 8.31005 9.97501L8.16009 9.83997L8.61007 9.65998C8.75926 9.60428 8.88019 9.49165 8.9463 9.34677C9.01241 9.2019 9.01824 9.03664 8.96255 8.88745C8.90685 8.73827 8.79422 8.61738 8.64935 8.55127C8.50448 8.48517 8.33926 8.47928 8.19007 8.53498Z" fill="#EF0AA1"/>
<path d="M12 6.42041C7.635 6.42041 3 7.68037 3 10.0354V13.9654C3 16.3204 7.65 17.5804 12 17.5804C13.3128 17.5846 14.6232 17.4691 15.915 17.2354C16.0006 17.2319 16.0846 17.2102 16.1611 17.1715C16.2377 17.1329 16.3051 17.0784 16.3587 17.0115C16.4124 16.9447 16.4511 16.8671 16.4723 16.784C16.4934 16.7009 16.4966 16.6142 16.4814 16.5298C16.4663 16.4455 16.4332 16.3654 16.3845 16.2948C16.3357 16.2243 16.2725 16.165 16.1989 16.121C16.1253 16.077 16.0432 16.0493 15.958 16.0397C15.8728 16.0301 15.7865 16.0388 15.705 16.0654C14.4818 16.2802 13.2419 16.3857 12 16.3804C7.23 16.3804 4.18497 14.9554 4.18497 13.9654V11.9104C6.6283 13.0561 9.29388 13.6501 11.9925 13.6501C14.6911 13.6501 17.3566 13.0561 19.8 11.9104V13.9654C19.8 14.3854 19.155 15.0904 17.37 15.6604C17.2192 15.7086 17.0935 15.8146 17.0205 15.9551C16.9474 16.0956 16.9328 16.2592 16.98 16.4104C17.0226 16.5278 17.1 16.6294 17.2018 16.7018C17.3037 16.7741 17.4251 16.8138 17.55 16.8154H17.745C19.83 16.1404 20.985 15.1354 20.985 13.9804V10.0504C20.985 7.68038 16.35 6.42041 12 6.42041ZM12 12.4204C7.23 12.4204 4.18497 10.9954 4.18497 10.0054C4.18497 9.01543 7.185 7.59036 12 7.59036C16.815 7.59036 19.8 9.01543 19.8 10.0054C19.8 10.9954 16.755 12.4503 12 12.4503V12.4204Z" fill="#001D6D"/>
<path d="M16.6948 8.8502C16.635 8.79191 16.5637 8.74676 16.4854 8.71763C16.4071 8.6885 16.3236 8.67601 16.2402 8.68101C16.1569 8.68601 16.0755 8.70837 16.0012 8.74665C15.927 8.78492 15.8615 8.83828 15.8091 8.9033C15.7567 8.96831 15.7184 9.04355 15.6967 9.12421C15.6751 9.20488 15.6704 9.28923 15.6832 9.37177C15.696 9.45431 15.7259 9.53325 15.7709 9.60358C15.816 9.67392 15.8752 9.73407 15.9448 9.78019L16.1099 9.91514L15.7349 10.0652C15.5879 10.1251 15.4706 10.2408 15.4088 10.387C15.3469 10.5332 15.3455 10.698 15.4049 10.8452C15.4478 10.957 15.5241 11.0529 15.6234 11.12C15.7227 11.187 15.8401 11.2221 15.9599 11.2202H16.1848L17.5049 10.6952C17.602 10.6571 17.6875 10.5944 17.7531 10.5133C17.8186 10.4321 17.8618 10.3353 17.8785 10.2323C17.8951 10.1293 17.8847 10.0237 17.8481 9.92603C17.8115 9.82834 17.7501 9.74189 17.6699 9.67518L16.6948 8.8502Z" fill="#EF0AA1"/>
<path d="M14.19 8.3703L13.1399 7.75534C13.0599 7.71886 12.9729 7.69995 12.885 7.69995C12.797 7.69995 12.71 7.71886 12.6299 7.75534L11.43 8.19031C11.2934 8.25303 11.1852 8.36472 11.1271 8.50333C11.0689 8.64194 11.0649 8.7974 11.1158 8.93884C11.1667 9.08028 11.2689 9.19743 11.402 9.26715C11.5352 9.33687 11.6897 9.35405 11.8349 9.31531L12.78 8.97034L13.59 9.45026C13.6891 9.4693 13.7908 9.4693 13.8899 9.45026C14.0191 9.44687 14.1436 9.40194 14.2452 9.32208C14.3467 9.24222 14.4197 9.13174 14.4534 9.00705C14.4872 8.88236 14.4797 8.75016 14.4322 8.63004C14.3847 8.50991 14.2998 8.40824 14.19 8.34027V8.3703Z" fill="#EF0AA1"/>
<path d="M12.4048 10.8301L11.3548 11.1601L10.6648 10.7552C10.5276 10.6736 10.3636 10.6499 10.2088 10.6892C10.0541 10.7286 9.9214 10.8278 9.83985 10.9651C9.75829 11.1023 9.73459 11.2664 9.77397 11.4211C9.81336 11.5758 9.91257 11.7085 10.0498 11.7901L10.9648 12.3301C11.0688 12.3508 11.1758 12.3508 11.2798 12.3301C11.3389 12.3448 11.4007 12.3448 11.4598 12.3301L12.7648 11.9251C12.9156 11.8769 13.0413 11.771 13.1143 11.6305C13.1874 11.49 13.202 11.3263 13.1548 11.1751C13.1009 11.0301 12.9916 10.9124 12.8511 10.8477C12.7105 10.7831 12.5501 10.7768 12.4048 10.8301Z" fill="#EF0AA1"/>
</svg>
