<svg width="6" height="6" viewBox="0 0 6 6" fill="none" xmlns="http://www.w3.org/2000/svg">
<path fill-rule="evenodd" clip-rule="evenodd" d="M5.90155 4.17695L3.60844 0.380053C3.47325 0.155869 3.23632 0 2.99968 0C2.76303 0 2.52554 0.155869 2.39035 0.380053L0.108199 4.15855C-0.162737 4.60748 0.0837472 5.29787 0.751249 5.29787H5.24811C5.86305 5.29787 6.17193 4.6256 5.90155 4.17695ZM3.03199 4.59568C2.82049 4.59568 2.64901 4.43848 2.64901 4.24462C2.64901 4.05076 2.82049 3.89355 3.03199 3.89355C3.24349 3.89355 3.41497 4.01215 3.41497 4.24462C3.41468 4.43848 3.24349 4.59568 3.03199 4.59568ZM3.03246 3.60625C3.16413 3.60433 3.273 3.50481 3.28453 3.37581L3.4446 1.79763C3.46964 1.45516 3.2865 1.27646 3.03246 1.27646C2.77758 1.27646 2.59388 1.45516 2.61948 1.79763L2.77983 3.37581C2.792 3.50472 2.90083 3.60398 3.03246 3.60625Z" fill="#E61717"/>
</svg>
